<svg width="22" height="20" viewBox="0 0 22 20" fill="none" xmlns="http://www.w3.org/2000/svg">
<path d="M21.2052 8.26774V16.8674C21.2052 17.6982 20.8752 18.495 20.2877 19.0825C19.7002 19.67 18.9034 20 18.0726 20H3.13259C2.30177 20 1.50499 19.67 0.917513 19.0825C0.330039 18.495 0 17.6982 0 16.8674V8.26774C0 8.16846 0.0057832 8.06918 0.0163858 7.97183L10.219 14.3478C10.3191 14.4105 10.433 14.4476 10.5508 14.456C10.6686 14.4644 10.7867 14.4438 10.8947 14.396L10.9862 14.3478L21.1888 7.97183C21.1994 8.06918 21.2052 8.16846 21.2052 8.26774ZM10.9997 0.11916L20.0119 6.05372C20.25 6.20987 20.4563 6.40072 20.6288 6.61663L10.6026 12.8818L0.576396 6.61663C0.748929 6.40072 0.956162 6.20987 1.19327 6.05372L10.2055 0.11916C10.3235 0.041428 10.4618 0 10.6031 0C10.7444 0 10.8826 0.041428 11.0007 0.11916H10.9997Z" fill="#0058A5"/>
</svg>
