<svg width="20" height="20" viewBox="0 0 20 20" fill="none" xmlns="http://www.w3.org/2000/svg">
<path d="M19.0305 13.393C17.8862 13.2517 16.7499 13.0514 15.6262 12.7929C15.3519 12.7012 15.0585 12.6818 14.7746 12.7368C14.4906 12.7917 14.2256 12.919 14.0052 13.1065C13.7188 13.3984 12.892 14.2147 12.0329 15.058C8.95461 13.5441 6.46511 11.0516 4.95424 7.97075C5.79179 7.1112 6.5753 6.28949 6.89411 6.00297C7.08144 5.78248 7.20872 5.51735 7.26362 5.23323C7.31853 4.94911 7.2992 4.65562 7.20752 4.38117C6.94881 3.25524 6.74861 2.11665 6.60772 0.969981C6.59263 0.823961 6.54797 0.682546 6.47647 0.554355C6.40498 0.426164 6.30813 0.313882 6.19185 0.224354C6.07556 0.134825 5.94228 0.069924 5.8001 0.0336077C5.65793 -0.00270857 5.50986 -0.00967973 5.36491 0.0131187H0.761095C0.571061 0.0302829 0.393172 0.11397 0.258746 0.249445C0.124321 0.384921 0.0419776 0.5635 0.0262138 0.753741C-0.270981 4.91096 2.04714 9.36009 2.51725 10.2142V10.2467L2.58209 10.371C4.26494 13.291 6.688 15.7152 9.60669 17.3988L9.84444 17.534C10.9252 18.107 15.221 20.2694 19.2358 19.9721C19.4279 19.9587 19.6089 19.8774 19.7466 19.7427C19.8842 19.608 19.9694 19.4287 19.9869 19.2369V14.6364C20.0097 14.4913 20.0027 14.3432 19.9664 14.201C19.9301 14.0587 19.8652 13.9254 19.7757 13.809C19.6863 13.6927 19.574 13.5958 19.4459 13.5243C19.3178 13.4527 19.1764 13.4081 19.0305 13.393Z" fill="#0058A5"/>
</svg>
