<svg width="25" height="25" viewBox="0 0 25 25" fill="none" xmlns="http://www.w3.org/2000/svg">
<path d="M19.4529 24.9868L5.57137 25C2.51742 25.0028 0.0166602 22.5069 0.0131898 19.4529L2.31393e-06 5.57137C-0.002774 2.51742 2.49313 0.0166602 5.54707 0.0131898L19.4286 2.31393e-06C22.4826 -0.002774 24.9833 2.49313 24.9868 5.54707L25 19.4286C25.0035 22.4833 22.5069 24.984 19.4529 24.9868Z" fill="url(#paint0_radial_440_396)"/>
<path d="M19.4529 24.9868L5.57137 25C2.51742 25.0028 0.0166602 22.5069 0.0131898 19.4529L2.31393e-06 5.57137C-0.002774 2.51742 2.49313 0.0166602 5.54707 0.0131898L19.4286 2.31393e-06C22.4826 -0.002774 24.9833 2.49313 24.9868 5.54707L25 19.4286C25.0035 22.4833 22.5069 24.984 19.4529 24.9868Z" fill="url(#paint1_radial_440_396)"/>
<path d="M12.5001 17.3589C9.8217 17.3589 7.6416 15.1795 7.6416 12.5004C7.6416 9.82125 9.8217 7.64185 12.5001 7.64185C15.1786 7.64185 17.3587 9.82125 17.3587 12.5004C17.3587 15.1795 15.1786 17.3589 12.5001 17.3589ZM12.5001 9.03C10.5866 9.03 9.02976 10.5868 9.02976 12.5004C9.02976 14.414 10.5866 15.9708 12.5001 15.9708C14.4137 15.9708 15.9705 14.414 15.9705 12.5004C15.9705 10.5868 14.4137 9.03 12.5001 9.03Z" fill="white"/>
<path d="M17.7062 8.3359C18.2811 8.3359 18.7473 7.86977 18.7473 7.29478C18.7473 6.71979 18.2811 6.25366 17.7062 6.25366C17.1312 6.25366 16.665 6.71979 16.665 7.29478C16.665 7.86977 17.1312 8.3359 17.7062 8.3359Z" fill="white"/>
<path d="M16.665 21.5233H8.33608C5.65764 21.5233 3.47754 19.3439 3.47754 16.6648V8.33584C3.47754 5.6567 5.65764 3.47729 8.33608 3.47729H16.665C19.3435 3.47729 21.5236 5.6567 21.5236 8.33584V16.6648C21.5236 19.3439 19.3435 21.5233 16.665 21.5233ZM8.33608 4.86545C6.42251 4.86545 4.86569 6.42227 4.86569 8.33584V16.6648C4.86569 18.5784 6.42251 20.1352 8.33608 20.1352H16.665C18.5786 20.1352 20.1354 18.5784 20.1354 16.6648V8.33584C20.1354 6.42227 18.5786 4.86545 16.665 4.86545H8.33608Z" fill="white"/>
<defs>
<radialGradient id="paint0_radial_440_396" cx="0" cy="0" r="1" gradientUnits="userSpaceOnUse" gradientTransform="translate(9.29371 25.018) scale(31.1634 31.1634)">
<stop stop-color="#FFDD55"/>
<stop offset="0.328" stop-color="#FF543F"/>
<stop offset="0.348" stop-color="#FC5245"/>
<stop offset="0.504" stop-color="#E64771"/>
<stop offset="0.643" stop-color="#D53E91"/>
<stop offset="0.761" stop-color="#CC39A4"/>
<stop offset="0.841" stop-color="#C837AB"/>
</radialGradient>
<radialGradient id="paint1_radial_440_396" cx="0" cy="0" r="1" gradientUnits="userSpaceOnUse" gradientTransform="translate(4.02288 -0.312123) scale(20.6925 13.7874)">
<stop stop-color="#4168C9"/>
<stop offset="0.999" stop-color="#4168C9" stop-opacity="0"/>
</radialGradient>
</defs>
</svg>
