<svg width="20" height="20" viewBox="0 0 20 20" fill="none" xmlns="http://www.w3.org/2000/svg">
<path d="M15.5623 19.9895L4.45709 20C2.01394 20.0022 0.0133282 18.0055 0.0105519 15.5623L1.85114e-06 4.45709C-0.0022192 2.01394 1.9945 0.0133282 4.43766 0.0105519L15.5429 1.85114e-06C17.9861 -0.0022192 19.9867 1.9945 19.9894 4.43766L20 15.5429C20.0028 17.9866 18.0055 19.9872 15.5623 19.9895Z" fill="url(#paint0_radial_440_3275)"/>
<path d="M15.5623 19.9895L4.45709 20C2.01394 20.0022 0.0133282 18.0055 0.0105519 15.5623L1.85114e-06 4.45709C-0.0022192 2.01394 1.9945 0.0133282 4.43766 0.0105519L15.5429 1.85114e-06C17.9861 -0.0022192 19.9867 1.9945 19.9894 4.43766L20 15.5429C20.0028 17.9866 18.0055 19.9872 15.5623 19.9895Z" fill="url(#paint1_radial_440_3275)"/>
<path d="M10.0001 13.887C7.85736 13.887 6.11328 12.1434 6.11328 10.0001C6.11328 7.85681 7.85736 6.11328 10.0001 6.11328C12.1429 6.11328 13.887 7.85681 13.887 10.0001C13.887 12.1434 12.1429 13.887 10.0001 13.887ZM10.0001 7.22381C8.46926 7.22381 7.22381 8.46926 7.22381 10.0001C7.22381 11.531 8.46926 12.7764 10.0001 12.7764C11.531 12.7764 12.7764 11.531 12.7764 10.0001C12.7764 8.46926 11.531 7.22381 10.0001 7.22381Z" fill="white"/>
<path d="M14.1649 6.66872C14.6249 6.66872 14.9978 6.29582 14.9978 5.83582C14.9978 5.37583 14.6249 5.00293 14.1649 5.00293C13.7049 5.00293 13.332 5.37583 13.332 5.83582C13.332 6.29582 13.7049 6.66872 14.1649 6.66872Z" fill="white"/>
<path d="M13.3312 17.2191H6.66809C4.52533 17.2191 2.78125 15.4755 2.78125 13.3322V6.66906C2.78125 4.52575 4.52533 2.78223 6.66809 2.78223H13.3312C15.474 2.78223 17.2181 4.52575 17.2181 6.66906V13.3322C17.2181 15.4755 15.474 17.2191 13.3312 17.2191ZM6.66809 3.89275C5.13723 3.89275 3.89177 5.13821 3.89177 6.66906V13.3322C3.89177 14.8631 5.13723 16.1085 6.66809 16.1085H13.3312C14.8621 16.1085 16.1075 14.8631 16.1075 13.3322V6.66906C16.1075 5.13821 14.8621 3.89275 13.3312 3.89275H6.66809Z" fill="white"/>
<defs>
<radialGradient id="paint0_radial_440_3275" cx="0" cy="0" r="1" gradientUnits="userSpaceOnUse" gradientTransform="translate(7.43497 20.0144) scale(24.9307 24.9307)">
<stop stop-color="#FFDD55"/>
<stop offset="0.328" stop-color="#FF543F"/>
<stop offset="0.348" stop-color="#FC5245"/>
<stop offset="0.504" stop-color="#E64771"/>
<stop offset="0.643" stop-color="#D53E91"/>
<stop offset="0.761" stop-color="#CC39A4"/>
<stop offset="0.841" stop-color="#C837AB"/>
</radialGradient>
<radialGradient id="paint1_radial_440_3275" cx="0" cy="0" r="1" gradientUnits="userSpaceOnUse" gradientTransform="translate(3.2183 -0.249698) scale(16.554 11.03)">
<stop stop-color="#4168C9"/>
<stop offset="0.999" stop-color="#4168C9" stop-opacity="0"/>
</radialGradient>
</defs>
</svg>
