<svg width="12" height="12" viewBox="0 0 12 12" fill="none" xmlns="http://www.w3.org/2000/svg">
<path d="M11.4183 8.03578C10.7317 7.95101 10.0499 7.83084 9.37574 7.67574C9.21114 7.62071 9.03513 7.60911 8.86473 7.64206C8.69434 7.67502 8.53533 7.75142 8.4031 7.86387C8.23127 8.03903 7.73522 8.52881 7.21973 9.03481C5.37277 8.12647 3.87907 6.63095 2.97254 4.78245C3.47507 4.26672 3.94518 3.77369 4.13647 3.60178C4.24887 3.46949 4.32523 3.31041 4.35817 3.13994C4.39112 2.96947 4.37952 2.79337 4.32451 2.6287C4.16928 1.95314 4.04916 1.26999 3.96463 0.581989C3.95558 0.494377 3.92878 0.409528 3.88588 0.332613C3.84299 0.255699 3.78488 0.188329 3.71511 0.134612C3.64534 0.0808948 3.56537 0.0419544 3.48006 0.0201646C3.39476 -0.00162514 3.30592 -0.00580784 3.21895 0.00787124H0.456657C0.342637 0.0181697 0.235903 0.0683818 0.155248 0.149667C0.0745924 0.230953 0.0251865 0.3381 0.0157283 0.452244C-0.162588 2.94657 1.22828 5.61606 1.51035 6.12855V6.14801L1.54925 6.22261C2.55896 7.97462 4.0128 9.42912 5.76401 10.4393L5.90667 10.5204C6.55509 10.8642 9.13258 12.1616 11.5415 11.9832C11.6567 11.9752 11.7654 11.9265 11.8479 11.8456C11.9305 11.7648 11.9816 11.6572 11.9921 11.5421V8.78181C12.0058 8.6948 12.0016 8.60592 11.9798 8.52058C11.9581 8.43523 11.9191 8.35522 11.8654 8.28542C11.8118 8.21562 11.7444 8.15749 11.6675 8.11457C11.5907 8.07165 11.5058 8.04484 11.4183 8.03578Z" fill="#EF3525"/>
</svg>
