<svg width="12" height="12" viewBox="0 0 12 12" fill="none" xmlns="http://www.w3.org/2000/svg">
<path d="M0 10.875V1.125C0 0.503672 0.503672 0 1.125 0H3.375C3.99609 0 4.5 0.503672 4.5 1.125V2.25H2.625C2.41875 2.25 2.25 2.41875 2.25 2.625C2.25 2.83125 2.41875 3 2.625 3H4.5V4.5H2.625C2.41875 4.5 2.25 4.66875 2.25 4.875C2.25 5.08125 2.41875 5.25 2.625 5.25H4.5V6.75H2.625C2.41875 6.75 2.25 6.91875 2.25 7.125C2.25 7.33125 2.41875 7.5 2.625 7.5H4.5V9.375C4.5 9.58125 4.66875 9.75 4.875 9.75C5.08125 9.75 5.25 9.58125 5.25 9.375V7.5H6.75V9.375C6.75 9.58125 6.91875 9.75 7.125 9.75C7.33125 9.75 7.5 9.58125 7.5 9.375V7.5H9V9.375C9 9.58125 9.16875 9.75 9.375 9.75C9.58125 9.75 9.75 9.58125 9.75 9.375V7.5H10.875C11.4961 7.5 12 8.00391 12 8.625V10.875C12 11.4961 11.4961 12 10.875 12H1.125C0.542578 12 0.0634219 11.557 0.0058125 10.9898C0.00196875 10.9523 0 10.9148 0 10.875Z" fill="white"/>
</svg>
