<svg width="23" height="25" viewBox="0 0 23 25" fill="none" xmlns="http://www.w3.org/2000/svg">
<path d="M11.5002 0.595215C9.98277 0.595215 5.36495 0.595215 2.81195 3.00831C1.29165 4.57617 0.575195 6.84164 0.575195 10.119V11.9047C0.575195 15.1821 1.29165 17.4476 2.82977 19.0333C3.59567 19.7565 4.63987 20.3345 5.91637 20.7339L6.3252 20.8613V24.0327C6.3252 24.4047 6.42927 24.4047 6.46377 24.4047C6.5345 24.4047 6.64777 24.3815 6.86282 24.1839C6.91457 24.1309 7.29407 23.7059 9.13982 21.5655L9.32612 21.3494L9.605 21.3678C10.2231 21.4077 10.8608 21.4285 11.5002 21.4285C13.0176 21.4285 17.6354 21.4285 20.1884 19.0149C21.7082 17.447 22.4252 15.1815 22.4252 11.9047V10.119C22.4252 6.84164 21.7087 4.57617 20.1706 2.99045C17.6354 0.595215 13.0176 0.595215 11.5002 0.595215Z" fill="white"/>
<path d="M16.9353 14.7941C16.2964 14.237 16.0015 14.0685 15.1194 13.5203C14.752 13.2923 14.1919 13.0953 13.8981 13.0953C13.6974 13.0953 13.4571 13.2542 13.3099 13.4066C12.9327 13.7971 12.8091 14.2858 12.1478 14.2858C11.5009 14.2858 10.3711 13.6042 9.56031 12.7233C8.70931 11.884 8.05093 10.7144 8.05093 10.0447C8.05093 9.3602 8.51438 9.2233 8.89158 8.83222C9.03878 8.68044 9.20093 8.43163 9.20093 8.22389C9.20093 7.91972 9.01061 7.34889 8.79038 6.96853C8.26081 6.05484 8.09866 5.74949 7.55988 5.08877C7.37761 4.86496 7.17003 4.76258 6.95268 4.76199C6.58526 4.76139 6.10283 4.95008 5.77623 5.20187C5.28518 5.58103 4.77171 6.09711 4.63428 6.73996C4.61588 6.82746 4.60496 6.91556 4.60151 7.00365C4.57506 7.6733 4.82921 8.35306 5.10348 8.92865C5.74921 10.2852 6.60366 11.5983 7.53343 12.7709C7.83071 13.1459 8.15443 13.4947 8.48966 13.8316C8.81511 14.1781 9.15206 14.5132 9.51431 14.8215C10.6471 15.784 11.9155 16.6685 13.2259 17.337C13.7768 17.6179 14.4254 17.8763 15.0659 17.8572C15.1574 17.8542 15.2488 17.8435 15.3402 17.8227C15.9612 17.681 16.4597 17.1489 16.826 16.6406C17.0692 16.3025 17.2515 15.8037 17.2509 15.4227C17.2504 15.1977 17.1515 14.9828 16.9353 14.7941ZM17.2509 11.9048C16.9335 11.9048 16.6759 11.6382 16.6759 11.3096V10.7144C16.6759 7.7608 14.3541 5.35722 11.5009 5.35722C11.1835 5.35722 10.9259 5.09056 10.9259 4.76199C10.9259 4.43341 11.1835 4.16675 11.5009 4.16675C14.9883 4.16675 17.8259 7.10425 17.8259 10.7144V11.3096C17.8259 11.6382 17.5683 11.9048 17.2509 11.9048ZM13.7193 10.7144C13.464 10.7144 13.2305 10.537 13.1633 10.2691C13.0057 9.64353 12.5342 9.15484 11.9322 8.99413C11.6246 8.91139 11.44 8.58699 11.5193 8.26853C11.5987 7.95068 11.9115 7.75961 12.2203 7.84115C13.2254 8.1108 14.0131 8.92568 14.2759 9.96853C14.3558 10.287 14.1718 10.6114 13.8648 10.6947C13.8159 10.7078 13.767 10.7144 13.7193 10.7144Z" fill="#7E57C2"/>
<path d="M15.5252 11.3096C15.2078 11.3096 14.9502 11.0429 14.9502 10.7143C14.9502 8.81673 13.5162 7.25125 11.6854 7.15125C11.368 7.13399 11.1248 6.85363 11.1414 6.52566C11.1581 6.19709 11.4335 5.9447 11.7458 5.96256C14.1878 6.0959 16.1002 8.1834 16.1002 10.7143C16.1002 11.0429 15.8426 11.3096 15.5252 11.3096Z" fill="#7E57C2"/>
<path d="M11.5003 0C8.91279 0 4.88089 0.246429 2.42449 2.56905C0.687987 4.35893 0.000287542 6.86964 0.000287542 10.119C0.000287542 10.3881 -0.000862542 10.6881 0.00143746 11.0119C-0.000862542 11.3351 0.000287542 11.6351 0.000287542 11.9042C0.000287542 15.1536 0.687987 17.6643 2.42449 19.4542C3.35944 20.3381 4.52554 20.9196 5.75029 21.303V24.0327C5.75029 24.9827 6.35346 25 6.46386 25H6.46904C6.75309 24.9988 6.99861 24.8548 7.24471 24.6286C7.33729 24.5435 8.40621 23.3101 9.56886 21.9613C10.2612 22.0071 10.919 22.0238 11.4997 22.0238C14.0872 22.0238 18.1185 21.7768 20.5755 19.4542C22.3114 17.6649 22.9997 15.1536 22.9997 11.9042C22.9997 11.6351 23.0009 11.3351 22.9986 11.0113C23.0009 10.6875 22.9997 10.3881 22.9997 10.1185C22.9997 6.86905 22.312 4.35833 20.5755 2.56845C18.1191 0.246428 14.0878 0 11.5003 0ZM21.2753 11.697V11.9042C21.2753 14.8244 20.6744 16.8143 19.3858 18.1613C17.1537 20.2381 12.9016 20.2381 11.4997 20.2381C11.0731 20.2381 10.3808 20.2375 9.56369 20.1786C9.33656 20.4429 6.90029 23.2637 6.90029 23.2637V19.7738C5.69049 19.4732 4.49506 18.9804 3.61474 18.1619C2.32616 16.8143 1.72529 14.8244 1.72529 11.9042V11.697C1.72529 11.4881 1.72471 11.2625 1.72644 10.9988C1.72471 10.7607 1.72471 10.5357 1.72529 10.3262V10.119C1.72529 7.19881 2.32616 5.20893 3.61474 3.8619C5.84631 1.78512 10.099 1.78512 11.5003 1.78512C12.9016 1.78512 17.1537 1.78512 19.3853 3.8619C20.6744 5.20893 21.2747 7.19881 21.2747 10.119V10.3262C21.2747 10.5351 21.2753 10.7607 21.2736 11.0244C21.2753 11.2631 21.2753 11.4881 21.2753 11.697Z" fill="#7E57C2"/>
</svg>
