<svg width="19" height="20" viewBox="0 0 19 20" fill="none" xmlns="http://www.w3.org/2000/svg">
<path d="M9.19898 0.476562C7.98504 0.476562 4.29078 0.476562 2.24838 2.40704C1.03214 3.66132 0.458984 5.47371 0.458984 8.09561V9.52418C0.458984 12.1461 1.03214 13.9585 2.26264 15.227C2.87536 15.8056 3.71072 16.268 4.73192 16.5875L5.05898 16.6894V19.2266C5.05898 19.5242 5.14224 19.5242 5.16984 19.5242C5.22642 19.5242 5.31704 19.5056 5.48908 19.3475C5.53048 19.3051 5.83408 18.9651 7.31068 17.2528L7.45972 17.0799L7.68282 17.0947C8.17732 17.1266 8.68746 17.1432 9.19898 17.1432C10.4129 17.1432 14.1072 17.1432 16.1496 15.2123C17.3654 13.958 17.939 12.1456 17.939 9.52418V8.09561C17.939 5.47371 17.3658 3.66132 16.1353 2.39275C14.1072 0.476562 10.4129 0.476562 9.19898 0.476562Z" fill="white"/>
<path d="M13.5482 11.8349C13.0371 11.3892 12.8012 11.2544 12.0955 10.8159C11.8016 10.6335 11.3535 10.4759 11.1185 10.4759C10.9579 10.4759 10.7657 10.603 10.6479 10.7249C10.3461 11.0373 10.2472 11.4282 9.71825 11.4282C9.20075 11.4282 8.29685 10.883 7.64825 10.1782C6.96745 9.50682 6.44075 8.5711 6.44075 8.03539C6.44075 7.48777 6.81151 7.37825 7.11327 7.06539C7.23103 6.94396 7.36075 6.74491 7.36075 6.57872C7.36075 6.33539 7.20849 5.87872 7.03231 5.57444C6.60865 4.84348 6.47893 4.5992 6.04791 4.07063C5.90209 3.89158 5.73603 3.80967 5.56215 3.8092C5.26821 3.80872 4.88227 3.95967 4.62099 4.1611C4.22815 4.46444 3.81737 4.87729 3.70743 5.39158C3.69271 5.46158 3.68397 5.53206 3.68121 5.60253C3.66005 6.13825 3.86337 6.68206 4.08279 7.14253C4.59937 8.22777 5.28293 9.27825 6.02675 10.2163C6.26457 10.5163 6.52355 10.7954 6.79173 11.0649C7.05209 11.3421 7.32165 11.6102 7.61145 11.8568C8.51765 12.6268 9.53241 13.3344 10.5807 13.8692C11.0214 14.094 11.5403 14.3006 12.0527 14.2854C12.1259 14.283 12.199 14.2744 12.2722 14.2578C12.769 14.1444 13.1678 13.7187 13.4608 13.3121C13.6554 13.0416 13.8012 12.6425 13.8007 12.3378C13.8003 12.1578 13.7212 11.9859 13.5482 11.8349ZM13.8007 9.52348C13.5468 9.52348 13.3407 9.31015 13.3407 9.04729V8.5711C13.3407 6.20825 11.4833 4.28539 9.20075 4.28539C8.94683 4.28539 8.74075 4.07206 8.74075 3.8092C8.74075 3.54634 8.94683 3.33301 9.20075 3.33301C11.9906 3.33301 14.2607 5.68301 14.2607 8.5711V9.04729C14.2607 9.31015 14.0547 9.52348 13.8007 9.52348ZM10.9754 8.5711C10.7712 8.5711 10.5844 8.4292 10.5306 8.21491C10.4046 7.71444 10.0274 7.32348 9.54575 7.19491C9.29965 7.12872 9.15199 6.8692 9.21547 6.61444C9.27895 6.36015 9.52919 6.20729 9.77621 6.27253C10.5803 6.48825 11.2105 7.14015 11.4207 7.97444C11.4846 8.2292 11.3374 8.48872 11.0918 8.55539C11.0527 8.56586 11.0136 8.5711 10.9754 8.5711Z" fill="#7E57C2"/>
<path d="M12.4198 9.04786C12.1659 9.04786 11.9598 8.83453 11.9598 8.57167C11.9598 7.05358 10.8126 5.8012 9.34792 5.7212C9.094 5.70739 8.89942 5.4831 8.91276 5.22072C8.9261 4.95786 9.14644 4.75596 9.39622 4.77024C11.3498 4.87691 12.8798 6.54691 12.8798 8.57167C12.8798 8.83453 12.6737 9.04786 12.4198 9.04786Z" fill="#7E57C2"/>
<path d="M9.20023 0C7.13023 0 3.90471 0.197143 1.93959 2.05524C0.55039 3.48714 0.000230033 5.49571 0.000230033 8.09524C0.000230033 8.31048 -0.000690033 8.55048 0.00114997 8.80952C-0.000690033 9.0681 0.000230033 9.3081 0.000230033 9.52333C0.000230033 12.1229 0.55039 14.1314 1.93959 15.5633C2.68755 16.2705 3.62043 16.7357 4.60023 17.0424V19.2262C4.60023 19.9862 5.08277 20 5.17109 20H5.17523C5.40247 19.999 5.59889 19.8838 5.79577 19.7029C5.86983 19.6348 6.72497 18.6481 7.65509 17.569C8.20893 17.6057 8.73517 17.619 9.19977 17.619C11.2698 17.619 14.4948 17.4214 16.4604 15.5633C17.8491 14.1319 18.3998 12.1229 18.3998 9.52333C18.3998 9.3081 18.4007 9.0681 18.3988 8.80905C18.4007 8.55 18.3998 8.31048 18.3998 8.09476C18.3998 5.49524 17.8496 3.48667 16.4604 2.05476C14.4953 0.197143 11.2702 0 9.20023 0ZM17.0202 9.35762V9.52333C17.0202 11.8595 16.5395 13.4514 15.5087 14.529C13.7229 16.1905 10.3212 16.1905 9.19977 16.1905C8.85845 16.1905 8.30461 16.19 7.65095 16.1429C7.46925 16.3543 5.52023 18.611 5.52023 18.611V15.819C4.55239 15.5786 3.59605 15.1843 2.89179 14.5295C1.86093 13.4514 1.38023 11.8595 1.38023 9.52333V9.35762C1.38023 9.19048 1.37977 9.01 1.38115 8.79905C1.37977 8.60857 1.37977 8.42857 1.38023 8.26095V8.09524C1.38023 5.75905 1.86093 4.16714 2.89179 3.08952C4.67705 1.4281 8.07921 1.4281 9.20023 1.4281C10.3212 1.4281 13.7229 1.4281 15.5082 3.08952C16.5395 4.16714 17.0198 5.75905 17.0198 8.09524V8.26095C17.0198 8.42809 17.0202 8.60857 17.0189 8.81952C17.0202 9.01048 17.0202 9.19048 17.0202 9.35762Z" fill="#7E57C2"/>
</svg>
