<svg width="25" height="25" viewBox="0 0 25 25" fill="none" xmlns="http://www.w3.org/2000/svg">
<path d="M25 21.5278C25 23.4458 23.4458 25 21.5278 25H3.47222C1.55486 25 0 23.4458 0 21.5278V3.47222C0 1.55417 1.55486 0 3.47222 0H21.5278C23.4458 0 25 1.55417 25 3.47222V21.5278Z" fill="#1976D2"/>
<path d="M20.7899 8.36183C20.8219 8.25697 20.8371 8.15975 20.833 8.07294C20.8225 7.82155 20.6496 7.63892 20.2427 7.63892H18.4246C17.9656 7.63892 17.7538 7.91669 17.6302 8.19517C17.6302 8.19517 16.4969 10.5278 15.1906 12.066C14.767 12.5111 14.5517 12.5 14.3225 12.5C14.1996 12.5 13.8892 12.3514 13.8892 11.9438V8.34308C13.8892 7.86114 13.7691 7.63892 13.3809 7.63892H10.1524C9.86977 7.63892 9.72255 7.86114 9.72255 8.08406C9.72255 8.54725 10.3462 8.65836 10.417 9.95628V12.4722C10.417 13.0834 10.3107 13.1945 10.0816 13.1945C9.46352 13.1945 8.24685 11.1111 7.43227 8.38058C7.25588 7.84308 7.07949 7.63892 6.62046 7.63892H4.78505C4.25519 7.63892 4.16699 7.89864 4.16699 8.17642C4.16699 8.67711 4.58366 11.3841 6.85796 14.4966C8.50727 16.7535 10.6802 18.0556 12.6038 18.0556C13.7691 18.0556 13.8885 17.7591 13.8885 17.2959V15.232C13.8892 14.6757 14.0163 14.5834 14.3871 14.5834C14.6517 14.5834 15.1913 14.757 16.233 15.9722C17.4344 17.3736 17.6524 18.0556 18.3413 18.0556H20.1594C20.5816 18.0556 20.8239 17.8785 20.8337 17.5347C20.8357 17.4472 20.8232 17.3493 20.7948 17.2403C20.66 16.8403 20.042 15.8625 19.2712 14.9306C18.8441 14.4146 18.4225 13.9035 18.2288 13.6257C18.0989 13.4445 18.0496 13.3167 18.0559 13.1945C18.0621 13.066 18.1288 12.9438 18.2288 12.7729C18.2107 12.7729 20.5607 9.47364 20.7899 8.36183Z" fill="white"/>
</svg>
