<svg width="20" height="20" viewBox="0 0 20 20" fill="none" xmlns="http://www.w3.org/2000/svg">
<path d="M20 17.2222C20 18.7567 18.7567 20 17.2222 20H2.77778C1.24389 20 0 18.7567 0 17.2222V2.77778C0 1.24333 1.24389 0 2.77778 0H17.2222C18.7567 0 20 1.24333 20 2.77778V17.2222Z" fill="#1976D2"/>
<path d="M16.6304 6.68966C16.6559 6.60577 16.6681 6.52799 16.6648 6.45855C16.6565 6.25744 16.5181 6.11133 16.1926 6.11133H14.7381C14.3709 6.11133 14.2015 6.33355 14.1026 6.55633C14.1026 6.55633 13.1959 8.42244 12.1509 9.65299C11.812 10.0091 11.6398 10.0002 11.4565 10.0002C11.3581 10.0002 11.1098 9.88133 11.1098 9.55522V6.67466C11.1098 6.28911 11.0137 6.11133 10.7031 6.11133H8.12036C7.89425 6.11133 7.77648 6.28911 7.77648 6.46744C7.77648 6.838 8.27536 6.92688 8.33203 7.96522V9.97799C8.33203 10.4669 8.24703 10.5558 8.0637 10.5558C7.56925 10.5558 6.59592 8.88911 5.94425 6.70466C5.80314 6.27466 5.66203 6.11133 5.29481 6.11133H3.82648C3.40259 6.11133 3.33203 6.31911 3.33203 6.54133C3.33203 6.94188 3.66536 9.10744 5.48481 11.5974C6.80425 13.403 8.54259 14.4447 10.0815 14.4447C11.0137 14.4447 11.1093 14.2074 11.1093 13.8369V12.1858C11.1098 11.7408 11.2115 11.6669 11.5081 11.6669C11.7198 11.6669 12.1515 11.8058 12.9848 12.778C13.9459 13.8991 14.1204 14.4447 14.6715 14.4447H16.1259C16.4637 14.4447 16.6576 14.303 16.6654 14.028C16.667 13.958 16.657 13.8797 16.6343 13.7924C16.5265 13.4724 16.032 12.6902 15.4154 11.9447C15.0737 11.5319 14.7365 11.123 14.5815 10.9008C14.4776 10.7558 14.4381 10.6536 14.4431 10.5558C14.4481 10.453 14.5015 10.3552 14.5815 10.2186C14.567 10.2186 16.447 7.57911 16.6304 6.68966Z" fill="white"/>
</svg>
