<svg width="21" height="20" viewBox="0 0 21 20" fill="none" xmlns="http://www.w3.org/2000/svg">
<path fill-rule="evenodd" clip-rule="evenodd" d="M0.898438 19.5031L2.24096 14.6227C1.41272 13.1946 0.977175 11.5739 0.977673 9.91402C0.980165 4.72098 5.22401 0.496094 10.4396 0.496094C12.9707 0.497086 15.3457 1.47813 17.1323 3.2581C18.9183 5.03857 19.9021 7.40459 19.9011 9.92146C19.8991 15.1145 15.6542 19.3399 10.4396 19.3399C10.4391 19.3399 10.4396 19.3399 10.4396 19.3399H10.4356C8.85241 19.3394 7.2961 18.9439 5.91421 18.1931L0.898438 19.5031Z" fill="white"/>
<path fill-rule="evenodd" clip-rule="evenodd" d="M0.901295 19.7513C0.835514 19.7513 0.771727 19.7255 0.724385 19.6779C0.662093 19.6149 0.637674 19.5231 0.661096 19.4382L1.97621 14.6565C1.16093 13.2145 0.730863 11.5769 0.73186 9.91458C0.733853 4.58409 5.08983 0.248047 10.4425 0.248047C13.0388 0.249039 15.4782 1.25589 17.3116 3.083C19.1449 4.91061 20.1541 7.33915 20.1531 9.92153C20.1511 15.2515 15.7946 19.5881 10.4425 19.5881C8.85327 19.5876 7.28102 19.197 5.88567 18.4582L0.964584 19.7429C0.943654 19.7488 0.922723 19.7513 0.901295 19.7513Z" fill="white"/>
<path fill-rule="evenodd" clip-rule="evenodd" d="M10.4401 0.496229C12.9712 0.497221 15.3462 1.47827 17.1328 3.25824C18.9188 5.03871 19.9026 7.40472 19.9016 9.9216C19.8996 15.1146 15.6547 19.34 10.4401 19.34H10.4361C8.85291 19.3395 7.2966 18.944 5.9147 18.1932L0.898934 19.5033L2.24146 14.6229C1.41322 13.1947 0.977671 11.574 0.978169 9.91415C0.980661 4.72112 5.22451 0.496229 10.4401 0.496229ZM10.4401 0C4.95042 0 0.482323 4.4472 0.479831 9.91415C0.479333 11.585 0.90292 13.2314 1.70624 14.6889L0.418038 19.3728C0.371194 19.544 0.419034 19.7266 0.544615 19.8526C0.639299 19.9479 0.767372 20 0.898934 20C0.941292 20 0.983651 19.9945 1.02551 19.9836L5.85291 18.7232C7.26221 19.4517 8.84194 19.8362 10.4361 19.8367C15.9298 19.8367 20.3979 15.389 20.4004 9.92209C20.4014 7.27273 19.3663 4.78166 17.4861 2.9079C15.6049 1.03364 13.1027 0.000992457 10.4401 0Z" fill="#CFD8DC"/>
<path fill-rule="evenodd" clip-rule="evenodd" d="M16.0034 4.38247C14.5183 2.90271 12.5444 2.08741 10.4434 2.08691C6.1059 2.08691 2.57817 5.59823 2.57617 9.91443C2.57567 11.3937 2.99129 12.8337 3.77866 14.0808L3.96604 14.377L3.17119 17.2656L6.14776 16.4885L6.4353 16.6582C7.64227 17.3718 9.02666 17.7489 10.438 17.7494H10.4409C14.7755 17.7494 18.3032 14.2376 18.3047 9.92088C18.3052 7.82927 17.4884 5.86222 16.0034 4.38247Z" fill="#40C351"/>
<path fill-rule="evenodd" clip-rule="evenodd" d="M8.07616 5.97683C7.89925 5.58481 7.71288 5.57687 7.54394 5.56992C7.4059 5.56397 7.24843 5.56446 7.09095 5.56446C6.93348 5.56446 6.67733 5.62351 6.46055 5.85922C6.24377 6.09493 5.63281 6.66411 5.63281 7.8223C5.63281 8.9805 6.47999 10.1 6.59809 10.2568C6.7162 10.4136 8.23364 12.8665 10.6366 13.8103C12.6335 14.5943 13.0401 14.4385 13.4737 14.3993C13.9072 14.3601 14.8725 13.8301 15.0693 13.2803C15.2662 12.7305 15.2662 12.2596 15.2074 12.1613C15.1481 12.0631 14.9906 12.0045 14.7544 11.8864C14.5182 11.7683 13.3556 11.1991 13.1388 11.1207C12.922 11.0423 12.7645 11.0031 12.6066 11.2388C12.4491 11.4741 11.9961 12.0045 11.8581 12.1613C11.72 12.3186 11.582 12.3385 11.3458 12.2204C11.1095 12.1023 10.3481 11.8542 9.4446 11.0523C8.74194 10.4285 8.26753 9.65785 8.12949 9.42215C7.99145 9.18693 8.11454 9.0594 8.23314 8.9418C8.33929 8.8361 8.46935 8.66688 8.58796 8.52943C8.70606 8.39197 8.74543 8.29372 8.82417 8.13691C8.90291 7.97961 8.86354 7.84215 8.80424 7.72455C8.74593 7.60644 8.28646 6.44229 8.07616 5.97683Z" fill="white"/>
</svg>
