<svg width="25" height="25" viewBox="0 0 25 25" fill="none" xmlns="http://www.w3.org/2000/svg">
<path fill-rule="evenodd" clip-rule="evenodd" d="M0.624023 24.3792L2.30218 18.2787C1.26688 16.4935 0.722445 14.4676 0.723068 12.3928C0.726183 5.90148 6.03099 0.620361 12.5505 0.620361C15.7143 0.621602 18.6832 1.84791 20.9163 4.07287C23.1489 6.29846 24.3785 9.25598 24.3773 12.4021C24.3748 18.8934 19.0688 24.1751 12.5505 24.1751C12.5499 24.1751 12.5505 24.1751 12.5505 24.1751H12.5455C10.5665 24.1745 8.6211 23.6801 6.89374 22.7416L0.624023 24.3792Z" fill="white"/>
<path fill-rule="evenodd" clip-rule="evenodd" d="M0.624665 24.6894C0.54244 24.6894 0.462706 24.6571 0.403528 24.5976C0.325663 24.5188 0.29514 24.4041 0.324417 24.298L1.96831 18.3209C0.949208 16.5184 0.411626 14.4714 0.412872 12.3935C0.415363 5.73036 5.86033 0.310303 12.5511 0.310303C15.7966 0.311543 18.8458 1.5701 21.1375 3.854C23.4292 6.13851 24.6906 9.17419 24.6894 12.4022C24.6869 19.0646 19.2413 24.4853 12.5511 24.4853C10.5646 24.4847 8.59932 23.9965 6.85514 23.0729L0.703777 24.6789C0.677614 24.6863 0.651451 24.6894 0.624665 24.6894Z" fill="white"/>
<path fill-rule="evenodd" clip-rule="evenodd" d="M12.5497 0.620286C15.7135 0.621526 18.6823 1.84783 20.9155 4.0728C23.1481 6.29838 24.3777 9.2559 24.3765 12.402C24.374 18.8933 19.0679 24.175 12.5497 24.175H12.5447C10.5656 24.1744 8.62026 23.68 6.89289 22.7415L0.623179 24.3791L2.30133 18.2786C1.26603 16.4934 0.7216 14.4675 0.722223 12.3927C0.725338 5.9014 6.03015 0.620286 12.5497 0.620286ZM12.5497 0C5.68754 0 0.102415 5.559 0.0993009 12.3927C0.098678 14.4812 0.628162 16.5393 1.63231 18.3611L0.0220586 24.216C-0.0364961 24.43 0.0233044 24.6582 0.180281 24.8158C0.298636 24.9349 0.458727 25 0.623179 25C0.676127 25 0.729076 24.9932 0.781401 24.9795L6.81565 23.404C8.57727 24.3146 10.5519 24.7953 12.5447 24.7959C19.4118 24.7959 24.9969 19.2363 25 12.4026C25.0012 9.09091 23.7074 5.97707 21.3571 3.63487C19.0056 1.29206 15.8779 0.00124057 12.5497 0Z" fill="#CFD8DC"/>
<path fill-rule="evenodd" clip-rule="evenodd" d="M19.5028 5.47833C17.6465 3.62864 15.1791 2.60951 12.5528 2.60889C7.13091 2.60889 2.72124 6.99803 2.71875 12.3933C2.71813 14.2423 3.23764 16.0424 4.22186 17.6012L4.45608 17.9715L3.46252 21.5822L7.18324 20.6108L7.54266 20.823C9.05138 21.7149 10.7819 22.1864 12.546 22.187H12.5497C17.9679 22.187 22.3776 17.7972 22.3794 12.4013C22.38 9.78684 21.3591 7.32802 19.5028 5.47833Z" fill="#40C351"/>
<path fill-rule="evenodd" clip-rule="evenodd" d="M9.59521 7.47128C9.37407 6.98126 9.1411 6.97133 8.92992 6.96265C8.75738 6.9552 8.56053 6.95582 8.36369 6.95582C8.16684 6.95582 7.84666 7.02964 7.57569 7.32427C7.30472 7.61891 6.54102 8.33038 6.54102 9.77812C6.54102 11.2259 7.59998 12.6252 7.74762 12.8212C7.89525 13.0173 9.79205 16.0833 12.7958 17.2631C15.2918 18.2432 15.8001 18.0484 16.3421 17.9994C16.884 17.9504 18.0906 17.2879 18.3367 16.6006C18.5827 15.9134 18.5827 15.3247 18.5092 15.2019C18.4351 15.0791 18.2383 15.0059 17.943 14.8583C17.6477 14.7106 16.1944 13.9992 15.9235 13.9012C15.6525 13.8032 15.4557 13.7542 15.2582 14.0488C15.0614 14.3428 14.4951 15.0059 14.3226 15.2019C14.15 15.3985 13.9775 15.4233 13.6822 15.2757C13.3869 15.1281 12.4351 14.8179 11.3058 13.8156C10.4274 13.0359 9.83441 12.0726 9.66186 11.7779C9.48931 11.4839 9.64317 11.3245 9.79143 11.1775C9.92411 11.0454 10.0867 10.8339 10.2349 10.662C10.3826 10.4902 10.4318 10.3674 10.5302 10.1714C10.6286 9.97476 10.5794 9.80294 10.5053 9.65593C10.4324 9.5083 9.85808 8.05311 9.59521 7.47128Z" fill="white"/>
</svg>
